<?xml version="1.0" encoding="utf-8"?>
<!-- Generator: Adobe Illustrator 27.4.0, SVG Export Plug-In . SVG Version: 6.00 Build 0)  -->
<svg version="1.1" id="Layer_1" xmlns="http://www.w3.org/2000/svg" xmlns:xlink="http://www.w3.org/1999/xlink" x="0px" y="0px"
	 width="124px" height="24px" viewBox="0 0 124 24" style="enable-background:new 0 0 124 24;" xml:space="preserve">
<path id="conceptd-logo" d="M18,13.35c-0.73,1.65-1.93,3.06-3.44,4.05c-1.52,1.03-3.32,1.58-5.15,1.57C6.91,19.01,4.5,18,2.77,16.2
	C0.95,14.43-0.05,11.99,0,9.45c-0.05-2.51,0.95-4.93,2.76-6.67C4.5,0.96,6.91-0.05,9.41,0c1.84-0.01,3.63,0.54,5.15,1.57
	c1.51,0.99,2.7,2.4,3.43,4.05h-2.54c-0.59-1.02-1.41-1.89-2.39-2.55c-1.1-0.68-2.37-1.05-3.66-1.05c-1.9-0.02-3.72,0.77-5,2.17
	C3.03,5.59,2.27,7.49,2.32,9.45c-0.05,1.96,0.71,3.86,2.09,5.25c1.29,1.39,3.11,2.18,5,2.17c1.29,0,2.56-0.37,3.66-1.05
	c1-0.64,1.82-1.51,2.39-2.55C15.46,13.35,18,13.35,18,13.35 M30.4,7.58c-1.23-1.27-2.93-1.98-4.7-1.95c-1.76,0-3.46,0.7-4.71,1.95
	c-1.27,1.24-1.97,2.95-1.94,4.72c0,1.77,0.7,3.47,1.94,4.72c1.23,1.27,2.94,1.98,4.71,1.95c1.76,0,3.46-0.7,4.71-1.95
	c1.27-1.24,1.97-2.95,1.94-4.72C32.37,10.53,31.67,8.82,30.4,7.58 M28.98,15.53c-0.86,0.89-2.05,1.38-3.29,1.35
	c-2.54,0.02-4.61-2.03-4.63-4.57c0-0.03,0-0.05,0-0.08c-0.02-1.24,0.47-2.43,1.34-3.3c0.86-0.9,2.05-1.39,3.29-1.35
	c2.54-0.02,4.61,2.03,4.63,4.57c0,0.03,0,0.05,0,0.08C30.37,13.47,29.88,14.66,28.98,15.53 M46.84,18.9h-2.02v-6.67
	c0.02-1.24-0.47-2.43-1.34-3.3c-1.82-1.8-4.75-1.8-6.57,0c-0.88,0.87-1.37,2.06-1.34,3.3v6.67h-2.02v-6.67
	c0-1.77,0.7-3.47,1.94-4.72c2.6-2.6,6.81-2.6,9.41,0c0,0,0,0,0,0c1.27,1.24,1.97,2.95,1.94,4.72L46.84,18.9 M58.79,14.25
	c-0.33,0.74-0.88,1.37-1.57,1.8c-2.09,1.46-4.96,0.95-6.42-1.14c-0.55-0.79-0.84-1.73-0.83-2.69c-0.02-1.24,0.47-2.43,1.34-3.3
	c0.86-0.89,2.05-1.38,3.29-1.35c0.93,0.01,1.84,0.3,2.61,0.82c0.67,0.43,1.19,1.06,1.49,1.8h2.17c-0.4-1.34-1.25-2.5-2.39-3.3
	c-1.15-0.84-2.54-1.29-3.96-1.27c-1.76,0-3.46,0.7-4.71,1.95c-1.27,1.24-1.97,2.95-1.94,4.72c0,1.77,0.7,3.47,1.94,4.72
	c1.23,1.27,2.94,1.98,4.71,1.95c1.42-0.01,2.8-0.45,3.96-1.27c1.11-0.84,1.94-1.99,2.39-3.3L58.79,14.25z M75.3,12.3
	c0-1.77-0.7-3.47-1.94-4.72c-1.23-1.27-2.94-1.98-4.71-1.95c-1.76,0-3.46,0.7-4.71,1.95c-1.27,1.24-1.97,2.95-1.95,4.72
	c0.02,0.71,0.12,1.41,0.3,2.1c0.33,0.99,0.89,1.9,1.64,2.62c1.23,1.27,2.94,1.98,4.71,1.95h3.81v-2.02h-3.73
	c-1.23,0.02-2.42-0.47-3.29-1.35c-0.45-0.42-0.81-0.93-1.05-1.5c-0.14-0.46-0.22-0.94-0.22-1.42H75.3V12.3 M64.32,10.65
	c0.27-0.82,0.79-1.53,1.49-2.02c0.8-0.65,1.81-1,2.84-0.97c1.03-0.03,2.04,0.31,2.84,0.97c0.65,0.55,1.16,1.24,1.49,2.02H64.32z
	 M87.7,7.58c-1.23-1.27-2.94-1.98-4.71-1.95c-1.76,0-3.46,0.7-4.71,1.95c-1.25,1.22-1.96,2.9-1.94,4.65V24h2.02v-6.9
	c1.22,1.24,2.9,1.92,4.63,1.87c1.76,0,3.46-0.7,4.71-1.95c1.27-1.24,1.97-2.95,1.94-4.72C89.6,10.54,88.91,8.85,87.7,7.58
	 M86.28,15.6c-0.86,0.89-2.05,1.38-3.29,1.35c-2.54,0.02-4.61-2.03-4.63-4.57c0-0.03,0-0.05,0-0.08c0.01-2.54,2.08-4.59,4.62-4.57
	c0,0,0,0,0.01,0c1.23-0.01,2.41,0.48,3.29,1.35c0.88,0.87,1.37,2.06,1.34,3.3C87.63,13.59,87.14,14.75,86.28,15.6 M97.86,18.9h-0.45
	c-1.77,0-3.46-0.7-4.71-1.95c-1.27-1.24-1.97-2.95-1.94-4.72V2.03h2.02v3.6h5v2.02h-5v4.65c-0.02,1.24,0.47,2.43,1.34,3.3
	c0.86,0.89,2.05,1.38,3.29,1.35h0.45V18.9z M117.43,5.78c-0.49-1.15-1.2-2.19-2.09-3.07c-1.73-1.76-4.1-2.74-6.57-2.7h-5.9v18.9
	h5.98c1.78,0,3.52-0.52,5-1.5c1.19-0.77,2.18-1.79,2.91-3c0.52-0.75,0.9-1.59,1.12-2.47c0.23-0.83,0.36-1.69,0.37-2.55
	C118.24,8.13,117.96,6.9,117.43,5.78 M116.01,10.28c-0.08,0.56-0.21,1.11-0.37,1.65c-0.43,1.44-1.32,2.71-2.54,3.6
	c-1.18,0.91-2.62,1.41-4.11,1.42h-4.11V2.03h4.03c1.81-0.01,3.56,0.69,4.86,1.95c0.6,0.59,1.11,1.27,1.49,2.02
	c0.53,1.07,0.82,2.25,0.82,3.45C116.08,9.75,116.01,9.98,116.01,10.28 M120.27,0.23c0.04,0.04,0.07,0.09,0.07,0.15
	c0,0.07,0,0.07-0.07,0.15c-0.04,0.04-0.09,0.07-0.15,0.07h-0.9v2.32c0,0.07,0,0.07-0.07,0.15c-0.07,0-0.07,0.07-0.15,0.07
	c-0.07,0-0.07,0-0.15-0.07c-0.07,0-0.07-0.07-0.07-0.15V0.6h-0.9c-0.07,0-0.07,0-0.15-0.07c-0.04-0.04-0.07-0.09-0.07-0.15
	c0-0.07,0-0.07,0.07-0.15c0.04-0.04,0.09-0.07,0.15-0.07h2.24C120.15,0.19,120.2,0.22,120.27,0.23 M123.78,0.15
	c0.07,0,0.15,0,0.15,0.07C124,0.23,124,0.3,124,0.38v2.47c0,0.07,0,0.07-0.07,0.15c-0.07,0-0.07,0.07-0.15,0.07
	c-0.07,0-0.15,0-0.15-0.07c-0.07,0-0.07-0.07-0.07-0.15V0.98l-0.97,1.8c0,0.07-0.07,0.07-0.15,0.07c-0.07,0-0.15-0.07-0.22-0.15
	l-0.97-1.72v1.87c0,0.07,0,0.07-0.07,0.15c-0.07,0-0.07,0.07-0.15,0.07c-0.07,0-0.07,0-0.15-0.07c-0.07,0-0.07-0.07-0.07-0.15V0.38
	c0-0.07,0-0.07,0.07-0.15c0.07,0,0.07-0.07,0.15-0.07c0.08-0.01,0.16,0.02,0.22,0.07l1.2,2.02l1.2-2.02
	C123.64,0.23,123.64,0.15,123.78,0.15"/>
</svg>
